<mxfile host="app.diagrams.net" modified="2024-02-06T13:59:15.943Z" agent="Mozilla/5.0 (X11; Linux x86_64; rv:109.0) Gecko/20100101 Firefox/115.0" etag="xmFJ3bFb2ppliaH2NhYL" version="23.1.0" type="github">
  <diagram name="Page-1" id="vY0zwNQeNnIomx_tzhwQ">
    <mxGraphModel dx="1434" dy="795" grid="1" gridSize="10" guides="1" tooltips="1" connect="1" arrows="1" fold="1" page="1" pageScale="1" pageWidth="850" pageHeight="1100" math="0" shadow="0">
      <root>
        <mxCell id="0" />
        <mxCell id="1" parent="0" />
        <mxCell id="vMYYqLvwTdEVMoVklrqp-1" value="inndata" style="text;html=1;strokeColor=none;fillColor=none;align=center;verticalAlign=middle;whiteSpace=wrap;rounded=0;" parent="1" vertex="1">
          <mxGeometry x="20" y="289.5702127659574" width="70.24390243902438" height="39.57446808510638" as="geometry" />
        </mxCell>
        <mxCell id="vMYYqLvwTdEVMoVklrqp-5" value="" style="endArrow=none;html=1;rounded=0;" parent="1" edge="1">
          <mxGeometry width="50" height="50" relative="1" as="geometry">
            <mxPoint x="138.78048780487805" y="388.51063829787233" as="sourcePoint" />
            <mxPoint x="138.78048780487805" y="268.468085106383" as="targetPoint" />
            <Array as="points">
              <mxPoint x="138.78048780487805" y="308.04255319148933" />
            </Array>
          </mxGeometry>
        </mxCell>
        <mxCell id="vMYYqLvwTdEVMoVklrqp-7" value="" style="endArrow=none;html=1;rounded=0;" parent="1" edge="1">
          <mxGeometry width="50" height="50" relative="1" as="geometry">
            <mxPoint x="138.78048780487805" y="268.468085106383" as="sourcePoint" />
            <mxPoint x="618.780487804878" y="269.78723404255317" as="targetPoint" />
          </mxGeometry>
        </mxCell>
        <mxCell id="vMYYqLvwTdEVMoVklrqp-8" value="" style="endArrow=none;html=1;rounded=0;" parent="1" edge="1">
          <mxGeometry width="50" height="50" relative="1" as="geometry">
            <mxPoint x="138.78048780487805" y="388.51063829787233" as="sourcePoint" />
            <mxPoint x="162.1951219512195" y="388.51063829787233" as="targetPoint" />
          </mxGeometry>
        </mxCell>
        <mxCell id="vMYYqLvwTdEVMoVklrqp-10" value="" style="endArrow=none;html=1;rounded=0;" parent="1" edge="1">
          <mxGeometry width="50" height="50" relative="1" as="geometry">
            <mxPoint x="162.1951219512195" y="387.1914893617021" as="sourcePoint" />
            <mxPoint x="197.3170731707317" y="387.8510638297872" as="targetPoint" />
          </mxGeometry>
        </mxCell>
        <mxCell id="vMYYqLvwTdEVMoVklrqp-15" value="" style="endArrow=none;html=1;rounded=0;" parent="1" edge="1">
          <mxGeometry width="50" height="50" relative="1" as="geometry">
            <mxPoint x="197.3170731707317" y="387.8510638297872" as="sourcePoint" />
            <mxPoint x="618.780487804878" y="388.51063829787233" as="targetPoint" />
          </mxGeometry>
        </mxCell>
        <mxCell id="vMYYqLvwTdEVMoVklrqp-41" value="" style="endArrow=none;html=1;rounded=0;" parent="1" edge="1">
          <mxGeometry width="50" height="50" relative="1" as="geometry">
            <mxPoint x="80.24390243902438" y="309.36170212765956" as="sourcePoint" />
            <mxPoint x="138.78048780487805" y="309.36170212765956" as="targetPoint" />
          </mxGeometry>
        </mxCell>
        <mxCell id="vMYYqLvwTdEVMoVklrqp-53" value="var2" style="text;html=1;strokeColor=none;fillColor=none;align=center;verticalAlign=middle;whiteSpace=wrap;rounded=0;" parent="1" vertex="1">
          <mxGeometry x="150.48780487804876" y="296.17021276595744" width="23.414634146341463" height="13.191489361702127" as="geometry" />
        </mxCell>
        <mxCell id="vMYYqLvwTdEVMoVklrqp-54" value="&lt;font style=&quot;font-size: 14px;&quot;&gt;outdata(7)&lt;/font&gt;" style="text;html=1;strokeColor=none;fillColor=none;align=center;verticalAlign=middle;whiteSpace=wrap;rounded=0;" parent="1" vertex="1">
          <mxGeometry x="625.8524390243903" y="533.6170212765958" width="70.24390243902438" height="26.382978723404253" as="geometry" />
        </mxCell>
        <mxCell id="vMYYqLvwTdEVMoVklrqp-85" value="&lt;font style=&quot;font-size: 14px;&quot;&gt;outdata(6)&lt;/font&gt;" style="text;html=1;strokeColor=none;fillColor=none;align=center;verticalAlign=middle;whiteSpace=wrap;rounded=0;" parent="1" vertex="1">
          <mxGeometry x="625.8524390243903" y="494.04255319148933" width="70.24390243902438" height="26.382978723404253" as="geometry" />
        </mxCell>
        <mxCell id="vMYYqLvwTdEVMoVklrqp-87" value="&lt;font style=&quot;font-size: 14px;&quot;&gt;outdata(5)&lt;/font&gt;" style="text;html=1;strokeColor=none;fillColor=none;align=center;verticalAlign=middle;whiteSpace=wrap;rounded=0;" parent="1" vertex="1">
          <mxGeometry x="619.9987804878049" y="454.468085106383" width="81.95121951219512" height="26.382978723404253" as="geometry" />
        </mxCell>
        <mxCell id="vMYYqLvwTdEVMoVklrqp-88" value="&lt;font style=&quot;font-size: 14px;&quot;&gt;outdata(4)&lt;/font&gt;" style="text;html=1;strokeColor=none;fillColor=none;align=center;verticalAlign=middle;whiteSpace=wrap;rounded=0;" parent="1" vertex="1">
          <mxGeometry x="625.8524390243903" y="414.89361702127655" width="70.24390243902438" height="26.382978723404253" as="geometry" />
        </mxCell>
        <mxCell id="vMYYqLvwTdEVMoVklrqp-89" value="&lt;font style=&quot;font-size: 14px;&quot;&gt;outdata(3)&lt;/font&gt;" style="text;html=1;strokeColor=none;fillColor=none;align=center;verticalAlign=middle;whiteSpace=wrap;rounded=0;" parent="1" vertex="1">
          <mxGeometry x="625.8524390243903" y="375.3191489361702" width="70.24390243902438" height="26.382978723404253" as="geometry" />
        </mxCell>
        <mxCell id="vMYYqLvwTdEVMoVklrqp-90" value="&lt;font style=&quot;font-size: 14px;&quot;&gt;outdata(2)&lt;/font&gt;" style="text;html=1;strokeColor=none;fillColor=none;align=center;verticalAlign=middle;whiteSpace=wrap;rounded=0;" parent="1" vertex="1">
          <mxGeometry x="625.8524390243903" y="335.74468085106383" width="70.24390243902438" height="26.382978723404253" as="geometry" />
        </mxCell>
        <mxCell id="vMYYqLvwTdEVMoVklrqp-91" value="&lt;font style=&quot;font-size: 14px;&quot;&gt;outdata(1)&lt;/font&gt;" style="text;html=1;strokeColor=none;fillColor=none;align=center;verticalAlign=middle;whiteSpace=wrap;rounded=0;" parent="1" vertex="1">
          <mxGeometry x="619.9987804878049" y="289.5744680851064" width="81.95121951219512" height="26.382978723404253" as="geometry" />
        </mxCell>
        <mxCell id="vMYYqLvwTdEVMoVklrqp-92" value="&lt;font style=&quot;font-size: 14px;&quot;&gt;outdata(0)&lt;/font&gt;" style="text;html=1;strokeColor=none;fillColor=none;align=center;verticalAlign=middle;whiteSpace=wrap;rounded=0;" parent="1" vertex="1">
          <mxGeometry x="625.8524390243903" y="250" width="70.24390243902438" height="26.382978723404253" as="geometry" />
        </mxCell>
        <mxCell id="Tq36HS-asxwLY33G0bUq-10" value="" style="endArrow=none;html=1;rounded=0;" edge="1" parent="1">
          <mxGeometry width="50" height="50" relative="1" as="geometry">
            <mxPoint x="138.78048780487805" y="309.36170212765956" as="sourcePoint" />
            <mxPoint x="618.780487804878" y="309.36170212765956" as="targetPoint" />
          </mxGeometry>
        </mxCell>
        <mxCell id="Tq36HS-asxwLY33G0bUq-11" value="var1" style="text;html=1;strokeColor=none;fillColor=none;align=center;verticalAlign=middle;whiteSpace=wrap;rounded=0;" vertex="1" parent="1">
          <mxGeometry x="150.48780487804876" y="256.59574468085106" width="35.12195121951219" height="13.191489361702127" as="geometry" />
        </mxCell>
        <mxCell id="Tq36HS-asxwLY33G0bUq-13" value="" style="group" vertex="1" connectable="0" parent="1">
          <mxGeometry x="150.48780487804876" y="362.1276595744681" width="81.95121951219512" height="52.76595744680851" as="geometry" />
        </mxCell>
        <mxCell id="Tq36HS-asxwLY33G0bUq-14" value="" style="endArrow=none;html=1;rounded=0;" edge="1" parent="Tq36HS-asxwLY33G0bUq-13" source="Tq36HS-asxwLY33G0bUq-18">
          <mxGeometry width="50" height="50" relative="1" as="geometry">
            <mxPoint x="11.707317073170731" y="26.382978723404253" as="sourcePoint" />
            <mxPoint x="70.24390243902438" y="26.382978723404253" as="targetPoint" />
          </mxGeometry>
        </mxCell>
        <mxCell id="Tq36HS-asxwLY33G0bUq-15" value="" style="endArrow=none;html=1;rounded=0;" edge="1" parent="Tq36HS-asxwLY33G0bUq-13" target="Tq36HS-asxwLY33G0bUq-16">
          <mxGeometry width="50" height="50" relative="1" as="geometry">
            <mxPoint y="26.382978723404253" as="sourcePoint" />
            <mxPoint x="70.24390243902438" y="26.382978723404253" as="targetPoint" />
          </mxGeometry>
        </mxCell>
        <mxCell id="Tq36HS-asxwLY33G0bUq-16" value="" style="triangle;whiteSpace=wrap;html=1;" vertex="1" parent="Tq36HS-asxwLY33G0bUq-13">
          <mxGeometry x="11.707317073170731" width="35.12195121951219" height="52.76595744680851" as="geometry" />
        </mxCell>
        <mxCell id="Tq36HS-asxwLY33G0bUq-17" value="" style="endArrow=none;html=1;rounded=0;" edge="1" parent="Tq36HS-asxwLY33G0bUq-13" source="Tq36HS-asxwLY33G0bUq-16" target="Tq36HS-asxwLY33G0bUq-18">
          <mxGeometry width="50" height="50" relative="1" as="geometry">
            <mxPoint x="58.536585365853654" y="26.382978723404253" as="sourcePoint" />
            <mxPoint x="70.24390243902438" y="26.382978723404253" as="targetPoint" />
          </mxGeometry>
        </mxCell>
        <mxCell id="Tq36HS-asxwLY33G0bUq-18" value="" style="ellipse;whiteSpace=wrap;html=1;aspect=fixed;" vertex="1" parent="Tq36HS-asxwLY33G0bUq-13">
          <mxGeometry x="46.829268292682926" y="19.78723404255319" width="11.707317073170731" height="11.707317073170731" as="geometry" />
        </mxCell>
        <mxCell id="vMYYqLvwTdEVMoVklrqp-52" value="&lt;div&gt;sig2&lt;/div&gt;" style="text;html=1;strokeColor=none;fillColor=none;align=center;verticalAlign=middle;whiteSpace=wrap;rounded=0;" parent="Tq36HS-asxwLY33G0bUq-13" vertex="1">
          <mxGeometry x="46.829268292682926" width="35.12195121951219" height="19.78723404255319" as="geometry" />
        </mxCell>
        <mxCell id="Tq36HS-asxwLY33G0bUq-21" value="" style="endArrow=none;html=1;rounded=0;" edge="1" parent="1">
          <mxGeometry width="50" height="50" relative="1" as="geometry">
            <mxPoint x="349.5121951219512" y="348.93617021276594" as="sourcePoint" />
            <mxPoint x="349.5121951219512" y="282.97872340425533" as="targetPoint" />
          </mxGeometry>
        </mxCell>
        <mxCell id="Tq36HS-asxwLY33G0bUq-23" value="" style="group;rotation=90;" vertex="1" connectable="0" parent="1">
          <mxGeometry x="314.390243902439" y="282.97872340425533" width="70.24390243902438" height="52.76595744680851" as="geometry" />
        </mxCell>
        <mxCell id="Tq36HS-asxwLY33G0bUq-24" value="" style="endArrow=none;html=1;rounded=0;" edge="1" parent="Tq36HS-asxwLY33G0bUq-23" source="Tq36HS-asxwLY33G0bUq-28">
          <mxGeometry width="50" height="50" relative="1" as="geometry">
            <mxPoint x="35.12195121951219" as="sourcePoint" />
            <mxPoint x="35.12195121951219" y="65.95744680851064" as="targetPoint" />
          </mxGeometry>
        </mxCell>
        <mxCell id="Tq36HS-asxwLY33G0bUq-25" value="" style="endArrow=none;html=1;rounded=0;" edge="1" parent="Tq36HS-asxwLY33G0bUq-23" target="Tq36HS-asxwLY33G0bUq-26">
          <mxGeometry width="50" height="50" relative="1" as="geometry">
            <mxPoint x="35.12195121951219" y="-13.191489361702127" as="sourcePoint" />
            <mxPoint x="35.12195121951219" y="65.95744680851064" as="targetPoint" />
          </mxGeometry>
        </mxCell>
        <mxCell id="Tq36HS-asxwLY33G0bUq-26" value="" style="triangle;whiteSpace=wrap;html=1;rotation=90;" vertex="1" parent="Tq36HS-asxwLY33G0bUq-23">
          <mxGeometry x="17.560975609756095" y="-6.595744680851063" width="35.12195121951219" height="52.76595744680851" as="geometry" />
        </mxCell>
        <mxCell id="Tq36HS-asxwLY33G0bUq-27" value="" style="endArrow=none;html=1;rounded=0;" edge="1" parent="Tq36HS-asxwLY33G0bUq-23" source="Tq36HS-asxwLY33G0bUq-26" target="Tq36HS-asxwLY33G0bUq-28">
          <mxGeometry width="50" height="50" relative="1" as="geometry">
            <mxPoint x="35.12195121951219" y="52.76595744680851" as="sourcePoint" />
            <mxPoint x="35.12195121951219" y="65.95744680851064" as="targetPoint" />
          </mxGeometry>
        </mxCell>
        <mxCell id="Tq36HS-asxwLY33G0bUq-71" style="edgeStyle=orthogonalEdgeStyle;rounded=0;orthogonalLoop=1;jettySize=auto;html=1;endArrow=none;endFill=0;" edge="1" parent="Tq36HS-asxwLY33G0bUq-23" source="Tq36HS-asxwLY33G0bUq-28">
          <mxGeometry relative="1" as="geometry">
            <mxPoint x="35.12195121951219" y="145.1063829787234" as="targetPoint" />
          </mxGeometry>
        </mxCell>
        <mxCell id="Tq36HS-asxwLY33G0bUq-28" value="" style="ellipse;whiteSpace=wrap;html=1;aspect=fixed;rotation=90;" vertex="1" parent="Tq36HS-asxwLY33G0bUq-23">
          <mxGeometry x="29.268292682926827" y="39.57446808510638" width="11.707317073170731" height="11.707317073170731" as="geometry" />
        </mxCell>
        <mxCell id="Tq36HS-asxwLY33G0bUq-29" value="" style="endArrow=none;html=1;rounded=0;" edge="1" parent="1">
          <mxGeometry width="50" height="50" relative="1" as="geometry">
            <mxPoint x="244.14634146341461" y="546.8085106382978" as="sourcePoint" />
            <mxPoint x="618.780487804878" y="546.1489361702127" as="targetPoint" />
          </mxGeometry>
        </mxCell>
        <mxCell id="Tq36HS-asxwLY33G0bUq-30" value="" style="endArrow=none;html=1;rounded=0;" edge="1" parent="1">
          <mxGeometry width="50" height="50" relative="1" as="geometry">
            <mxPoint x="349.5121951219512" y="348.27659574468083" as="sourcePoint" />
            <mxPoint x="618.780487804878" y="348.93617021276594" as="targetPoint" />
          </mxGeometry>
        </mxCell>
        <mxCell id="Tq36HS-asxwLY33G0bUq-38" value="sig1" style="text;html=1;strokeColor=none;fillColor=none;align=center;verticalAlign=middle;whiteSpace=wrap;rounded=0;" vertex="1" parent="1">
          <mxGeometry x="443.17073170731703" y="335.74468085106383" width="35.12195121951219" height="13.191489361702127" as="geometry" />
        </mxCell>
        <mxCell id="Tq36HS-asxwLY33G0bUq-39" value="" style="group" vertex="1" connectable="0" parent="1">
          <mxGeometry x="372.92682926829264" y="322.55319148936167" width="70.24390243902438" height="52.76595744680851" as="geometry" />
        </mxCell>
        <mxCell id="Tq36HS-asxwLY33G0bUq-40" value="" style="endArrow=none;html=1;rounded=0;" edge="1" parent="Tq36HS-asxwLY33G0bUq-39" source="Tq36HS-asxwLY33G0bUq-44">
          <mxGeometry width="50" height="50" relative="1" as="geometry">
            <mxPoint x="11.707317073170731" y="26.382978723404253" as="sourcePoint" />
            <mxPoint x="70.24390243902438" y="26.382978723404253" as="targetPoint" />
          </mxGeometry>
        </mxCell>
        <mxCell id="Tq36HS-asxwLY33G0bUq-41" value="" style="endArrow=none;html=1;rounded=0;" edge="1" parent="Tq36HS-asxwLY33G0bUq-39" target="Tq36HS-asxwLY33G0bUq-42">
          <mxGeometry width="50" height="50" relative="1" as="geometry">
            <mxPoint y="26.382978723404253" as="sourcePoint" />
            <mxPoint x="70.24390243902438" y="26.382978723404253" as="targetPoint" />
          </mxGeometry>
        </mxCell>
        <mxCell id="Tq36HS-asxwLY33G0bUq-42" value="" style="triangle;whiteSpace=wrap;html=1;" vertex="1" parent="Tq36HS-asxwLY33G0bUq-39">
          <mxGeometry x="11.707317073170731" width="35.12195121951219" height="52.76595744680851" as="geometry" />
        </mxCell>
        <mxCell id="Tq36HS-asxwLY33G0bUq-43" value="" style="endArrow=none;html=1;rounded=0;" edge="1" parent="Tq36HS-asxwLY33G0bUq-39" source="Tq36HS-asxwLY33G0bUq-42" target="Tq36HS-asxwLY33G0bUq-44">
          <mxGeometry width="50" height="50" relative="1" as="geometry">
            <mxPoint x="58.536585365853654" y="26.382978723404253" as="sourcePoint" />
            <mxPoint x="70.24390243902438" y="26.382978723404253" as="targetPoint" />
          </mxGeometry>
        </mxCell>
        <mxCell id="Tq36HS-asxwLY33G0bUq-44" value="" style="ellipse;whiteSpace=wrap;html=1;aspect=fixed;" vertex="1" parent="Tq36HS-asxwLY33G0bUq-39">
          <mxGeometry x="46.829268292682926" y="19.78723404255319" width="11.707317073170731" height="11.707317073170731" as="geometry" />
        </mxCell>
        <mxCell id="Tq36HS-asxwLY33G0bUq-46" value="" style="endArrow=none;html=1;rounded=0;" edge="1" parent="1">
          <mxGeometry width="50" height="50" relative="1" as="geometry">
            <mxPoint x="244.14634146341461" y="546.8085106382978" as="sourcePoint" />
            <mxPoint x="244.14634146341461" y="388.51063829787233" as="targetPoint" />
          </mxGeometry>
        </mxCell>
        <mxCell id="Tq36HS-asxwLY33G0bUq-64" value="" style="group;rotation=90;" vertex="1" connectable="0" parent="1">
          <mxGeometry x="255.85365853658539" y="322.55319148936167" width="70.24390243902438" height="52.76595744680851" as="geometry" />
        </mxCell>
        <mxCell id="Tq36HS-asxwLY33G0bUq-65" value="" style="endArrow=none;html=1;rounded=0;" edge="1" parent="Tq36HS-asxwLY33G0bUq-64" source="Tq36HS-asxwLY33G0bUq-70">
          <mxGeometry width="50" height="50" relative="1" as="geometry">
            <mxPoint x="35.12195121951219" as="sourcePoint" />
            <mxPoint x="35.12195121951219" y="65.95744680851064" as="targetPoint" />
          </mxGeometry>
        </mxCell>
        <mxCell id="Tq36HS-asxwLY33G0bUq-66" value="" style="endArrow=none;html=1;rounded=0;" edge="1" parent="Tq36HS-asxwLY33G0bUq-64" target="Tq36HS-asxwLY33G0bUq-67">
          <mxGeometry width="50" height="50" relative="1" as="geometry">
            <mxPoint x="35.12195121951219" y="-13.191489361702127" as="sourcePoint" />
            <mxPoint x="35.12195121951219" y="65.95744680851064" as="targetPoint" />
          </mxGeometry>
        </mxCell>
        <mxCell id="Tq36HS-asxwLY33G0bUq-67" value="" style="triangle;whiteSpace=wrap;html=1;rotation=90;" vertex="1" parent="Tq36HS-asxwLY33G0bUq-64">
          <mxGeometry x="17.560975609756095" y="-6.595744680851063" width="35.12195121951219" height="52.76595744680851" as="geometry" />
        </mxCell>
        <mxCell id="Tq36HS-asxwLY33G0bUq-68" value="" style="endArrow=none;html=1;rounded=0;" edge="1" parent="Tq36HS-asxwLY33G0bUq-64" source="Tq36HS-asxwLY33G0bUq-67" target="Tq36HS-asxwLY33G0bUq-70">
          <mxGeometry width="50" height="50" relative="1" as="geometry">
            <mxPoint x="35.12195121951219" y="52.76595744680851" as="sourcePoint" />
            <mxPoint x="35.12195121951219" y="65.95744680851064" as="targetPoint" />
          </mxGeometry>
        </mxCell>
        <mxCell id="Tq36HS-asxwLY33G0bUq-69" style="edgeStyle=orthogonalEdgeStyle;rounded=0;orthogonalLoop=1;jettySize=auto;html=1;endArrow=none;endFill=0;" edge="1" parent="Tq36HS-asxwLY33G0bUq-64" source="Tq36HS-asxwLY33G0bUq-70">
          <mxGeometry relative="1" as="geometry">
            <mxPoint x="35.12195121951219" y="145.1063829787234" as="targetPoint" />
          </mxGeometry>
        </mxCell>
        <mxCell id="Tq36HS-asxwLY33G0bUq-70" value="" style="ellipse;whiteSpace=wrap;html=1;aspect=fixed;rotation=90;" vertex="1" parent="Tq36HS-asxwLY33G0bUq-64">
          <mxGeometry x="29.268292682926827" y="39.57446808510638" width="11.707317073170731" height="11.707317073170731" as="geometry" />
        </mxCell>
        <mxCell id="Tq36HS-asxwLY33G0bUq-72" value="" style="endArrow=none;html=1;rounded=0;" edge="1" parent="1">
          <mxGeometry width="50" height="50" relative="1" as="geometry">
            <mxPoint x="349.5121951219512" y="427.4255319148936" as="sourcePoint" />
            <mxPoint x="618.780487804878" y="428.0851063829787" as="targetPoint" />
          </mxGeometry>
        </mxCell>
        <mxCell id="Tq36HS-asxwLY33G0bUq-73" value="" style="endArrow=none;html=1;rounded=0;" edge="1" parent="1">
          <mxGeometry width="50" height="50" relative="1" as="geometry">
            <mxPoint x="290.9756097560975" y="467" as="sourcePoint" />
            <mxPoint x="618.780487804878" y="467.6595744680851" as="targetPoint" />
          </mxGeometry>
        </mxCell>
        <mxCell id="Tq36HS-asxwLY33G0bUq-74" value="" style="endArrow=none;html=1;rounded=0;" edge="1" parent="1">
          <mxGeometry width="50" height="50" relative="1" as="geometry">
            <mxPoint x="501.70731707317077" y="507.23404255319144" as="sourcePoint" />
            <mxPoint x="501.70731707317077" y="348.93617021276594" as="targetPoint" />
          </mxGeometry>
        </mxCell>
        <mxCell id="Tq36HS-asxwLY33G0bUq-75" value="" style="endArrow=none;html=1;rounded=0;" edge="1" parent="1">
          <mxGeometry width="50" height="50" relative="1" as="geometry">
            <mxPoint x="501.70731707317077" y="506.5744680851064" as="sourcePoint" />
            <mxPoint x="618.780487804878" y="507.23404255319144" as="targetPoint" />
          </mxGeometry>
        </mxCell>
        <mxCell id="Tq36HS-asxwLY33G0bUq-77" value="" style="endArrow=none;html=1;rounded=0;" edge="1" parent="1">
          <mxGeometry width="50" height="50" relative="1" as="geometry">
            <mxPoint x="720" y="550" as="sourcePoint" />
            <mxPoint x="720" y="240" as="targetPoint" />
          </mxGeometry>
        </mxCell>
        <mxCell id="Tq36HS-asxwLY33G0bUq-79" value="" style="endArrow=none;html=1;rounded=0;" edge="1" parent="1">
          <mxGeometry width="50" height="50" relative="1" as="geometry">
            <mxPoint x="701.95" y="262.69" as="sourcePoint" />
            <mxPoint x="721.95" y="262.69" as="targetPoint" />
          </mxGeometry>
        </mxCell>
        <mxCell id="Tq36HS-asxwLY33G0bUq-81" value="" style="endArrow=none;html=1;rounded=0;" edge="1" parent="1">
          <mxGeometry width="50" height="50" relative="1" as="geometry">
            <mxPoint x="701.95" y="549" as="sourcePoint" />
            <mxPoint x="721.95" y="549" as="targetPoint" />
          </mxGeometry>
        </mxCell>
        <mxCell id="Tq36HS-asxwLY33G0bUq-82" value="" style="endArrow=none;html=1;rounded=0;" edge="1" parent="1">
          <mxGeometry width="50" height="50" relative="1" as="geometry">
            <mxPoint x="701.95" y="302.27" as="sourcePoint" />
            <mxPoint x="721.95" y="302.27" as="targetPoint" />
          </mxGeometry>
        </mxCell>
        <mxCell id="Tq36HS-asxwLY33G0bUq-83" value="" style="endArrow=none;html=1;rounded=0;" edge="1" parent="1">
          <mxGeometry width="50" height="50" relative="1" as="geometry">
            <mxPoint x="701.95" y="506.73" as="sourcePoint" />
            <mxPoint x="721.95" y="506.73" as="targetPoint" />
          </mxGeometry>
        </mxCell>
        <mxCell id="Tq36HS-asxwLY33G0bUq-84" value="" style="endArrow=none;html=1;rounded=0;" edge="1" parent="1">
          <mxGeometry width="50" height="50" relative="1" as="geometry">
            <mxPoint x="701.95" y="467.15999999999997" as="sourcePoint" />
            <mxPoint x="721.95" y="467.15999999999997" as="targetPoint" />
          </mxGeometry>
        </mxCell>
        <mxCell id="Tq36HS-asxwLY33G0bUq-85" value="" style="endArrow=none;html=1;rounded=0;" edge="1" parent="1">
          <mxGeometry width="50" height="50" relative="1" as="geometry">
            <mxPoint x="701.95" y="427.59000000000003" as="sourcePoint" />
            <mxPoint x="721.95" y="427.59000000000003" as="targetPoint" />
          </mxGeometry>
        </mxCell>
        <mxCell id="Tq36HS-asxwLY33G0bUq-86" value="" style="endArrow=none;html=1;rounded=0;" edge="1" parent="1">
          <mxGeometry width="50" height="50" relative="1" as="geometry">
            <mxPoint x="701.95" y="388.01" as="sourcePoint" />
            <mxPoint x="721.95" y="388.01" as="targetPoint" />
          </mxGeometry>
        </mxCell>
        <mxCell id="Tq36HS-asxwLY33G0bUq-87" value="" style="endArrow=none;html=1;rounded=0;" edge="1" parent="1">
          <mxGeometry width="50" height="50" relative="1" as="geometry">
            <mxPoint x="701.95" y="347.94" as="sourcePoint" />
            <mxPoint x="721.95" y="347.94" as="targetPoint" />
          </mxGeometry>
        </mxCell>
        <mxCell id="Tq36HS-asxwLY33G0bUq-88" value="outdata[7:0]" style="text;html=1;strokeColor=none;fillColor=none;align=center;verticalAlign=middle;whiteSpace=wrap;rounded=0;" vertex="1" parent="1">
          <mxGeometry x="750" y="220" width="60" height="30" as="geometry" />
        </mxCell>
        <mxCell id="Tq36HS-asxwLY33G0bUq-89" value="" style="endArrow=none;html=1;rounded=0;" edge="1" parent="1">
          <mxGeometry width="50" height="50" relative="1" as="geometry">
            <mxPoint x="720" y="240" as="sourcePoint" />
            <mxPoint x="820" y="240" as="targetPoint" />
          </mxGeometry>
        </mxCell>
      </root>
    </mxGraphModel>
  </diagram>
</mxfile>
